<svg id="Laag_1" data-name="Laag 1" xmlns="http://www.w3.org/2000/svg" viewBox="0 0 590.72 523.74"><defs><style>.cls-1{fill:#fff;}</style></defs><path class="cls-1" d="M259.14,711.57h18.95l14.5,89h-14l-2.55-17.68v.25H260.16l-2.55,17.43h-13Zm15.26,59.52-6.23-44h-.25l-6.11,44Z" transform="translate(-244.64 -278.13)"/><path class="cls-1" d="M299.33,711.57h14v76.31h23V800.6h-37Z" transform="translate(-244.64 -278.13)"/><path class="cls-1" d="M344.09,724.29H329.47V711.57h43.24v12.72H358.08V800.6h-14Z" transform="translate(-244.64 -278.13)"/><path class="cls-1" d="M383.39,796q-5.47-5.85-5.47-16.53V732.68q0-10.68,5.47-16.53t15.77-5.85q10.3,0,15.77,5.85t5.47,16.53v46.81q0,10.68-5.47,16.53t-15.77,5.85Q388.86,801.87,383.39,796Zm23-15.64V731.8q0-8.79-7.25-8.78t-7.25,8.78v48.58q0,8.77,7.25,8.77T406.41,780.38Z" transform="translate(-244.64 -278.13)"/><path class="cls-1" d="M454.54,796.15q-5.28-5.73-5.28-16.16V732.18q0-10.42,5.28-16.15t15.33-5.73q10,0,15.32,5.73t5.28,16.15v9.41H477.24v-10.3q0-8.26-7-8.27t-7,8.27V781q0,8.15,7,8.14t7-8.14V767.4h13.23V780q0,10.44-5.28,16.16t-15.32,5.72Q459.82,801.87,454.54,796.15Z" transform="translate(-244.64 -278.13)"/><path class="cls-1" d="M503.57,796q-5.47-5.85-5.47-16.53V732.68q0-10.68,5.47-16.53t15.77-5.85q10.29,0,15.77,5.85t5.46,16.53v46.81q0,10.68-5.46,16.53t-15.77,5.85Q509,801.87,503.57,796Zm23-15.64V731.8q0-8.79-7.25-8.78t-7.25,8.78v48.58q0,8.77,7.25,8.77T526.59,780.38Z" transform="translate(-244.64 -278.13)"/><path class="cls-1" d="M550,711.57h17.54l13.61,53.29h.26V711.57h12.46v89H579.49l-16.79-65h-.25v65H550Z" transform="translate(-244.64 -278.13)"/><path class="cls-1" d="M607.09,796.08q-5.22-5.79-5.22-16.59V774.4H615.1v6.1q0,8.65,7.25,8.65a6.81,6.81,0,0,0,5.4-2.1c1.23-1.4,1.85-3.66,1.85-6.8a18.83,18.83,0,0,0-2.55-9.86q-2.53-4.26-9.41-10.24-8.65-7.62-12.08-13.79a28.14,28.14,0,0,1-3.43-13.93q0-10.56,5.34-16.34T623,710.3q10,0,15.2,5.79t5.15,16.59v3.69H630.1V731.8c0-3.06-.59-5.28-1.78-6.68a6.43,6.43,0,0,0-5.21-2.1q-7,0-7,8.52a16.8,16.8,0,0,0,2.61,9q2.61,4.2,9.48,10.17,8.77,7.63,12.08,13.87a30.8,30.8,0,0,1,3.3,14.62q0,10.93-5.4,16.79t-15.71,5.85Q612.3,801.87,607.09,796.08Z" transform="translate(-244.64 -278.13)"/><path class="cls-1" d="M651.6,711.57h14v89h-14Z" transform="translate(-244.64 -278.13)"/><path class="cls-1" d="M680.34,796.08Q675,790.29,675,779.49V732.68q0-10.8,5.35-16.59t15.51-5.79q10.17,0,15.52,5.79t5.34,16.59v7.64H703.48V731.8q0-8.79-7.25-8.78T689,731.8v48.7q0,8.65,7.25,8.65t7.25-8.65V763.08h-7V750.36h20.22v29.13q0,10.8-5.34,16.59t-15.52,5.79Q685.68,801.87,680.34,796.08Z" transform="translate(-244.64 -278.13)"/><path class="cls-1" d="M725.74,711.57h14v76.31h23V800.6h-37Z" transform="translate(-244.64 -278.13)"/><path class="cls-1" d="M769.48,711.57h14v89h-14Z" transform="translate(-244.64 -278.13)"/><path class="cls-1" d="M798.35,796q-5.48-5.85-5.47-16.53V732.68q0-10.68,5.47-16.53t15.77-5.85q10.3,0,15.77,5.85t5.47,16.53v46.81q0,10.68-5.47,16.53t-15.77,5.85Q803.82,801.87,798.35,796Zm23-15.64V731.8q0-8.79-7.25-8.78t-7.25,8.78v48.58q0,8.77,7.25,8.77T821.37,780.38Z" transform="translate(-244.64 -278.13)"/><path class="cls-1" d="M268.54,633.13h72.23a4.79,4.79,0,0,0,4.5-3.15l25.83-70.7a4.8,4.8,0,0,1,4.51-3.15H484.15a4.79,4.79,0,0,0,4.42-6.64l-24.08-57.42a4.8,4.8,0,0,0-4.42-2.94H408.72a4.79,4.79,0,0,1-4.43-6.62l39.56-95.72a4.79,4.79,0,0,1,8.85,0l71.43,171.05c.09.21.19.41.3.61,3.24,5.42,50.63,81.69,153.82,81.69,91.71,0,130.53-44.07,139.75-56.67a4.79,4.79,0,0,0-.37-6.12L776.85,534c-2.16-2.29-5.57-1.69-7.56.76-10,12.36-29.83,37.36-87,37.36-74,0-97-55-97-55L485.5,286a4.78,4.78,0,0,0-4.4-2.89H415.23a4.78,4.78,0,0,0-4.4,2.9L264.14,626.44A4.79,4.79,0,0,0,268.54,633.13Z" transform="translate(-244.64 -278.13)"/><path class="cls-1" d="M542,343.88l30.37,66.7a4.72,4.72,0,0,0,8.34.49c10.24-17.09,38.18-55.89,83.55-61.94,45-6,67,8,79,16a139.3,139.3,0,0,1,19.69,16.57,4.71,4.71,0,0,0,6.71,0L810.43,340a4.7,4.7,0,0,0,.33-6.23c-9.9-12.49-49.82-55.65-128.51-55.65-81.31,0-129.42,49.23-139.5,60.67A4.73,4.73,0,0,0,542,343.88Z" transform="translate(-244.64 -278.13)"/></svg>