<svg id="Laag_1" data-name="Laag 1" xmlns="http://www.w3.org/2000/svg" viewBox="0 0 555.19 362"><defs><style>.cls-1{fill:#fff;}</style></defs><path class="cls-1" d="M267.2,714h72.23a4.79,4.79,0,0,0,4.5-3.15l25.84-70.7a4.79,4.79,0,0,1,4.5-3.15H482.81a4.79,4.79,0,0,0,4.42-6.65l-24.08-57.41a4.79,4.79,0,0,0-4.42-2.94H407.39a4.79,4.79,0,0,1-4.43-6.62l39.55-95.72a4.79,4.79,0,0,1,8.85,0L522.79,638.7a4.25,4.25,0,0,0,.31.6c3.24,5.43,50.62,81.7,153.82,81.7,91.71,0,130.52-44.08,139.75-56.67a4.79,4.79,0,0,0-.38-6.12l-40.78-43.33c-2.15-2.29-5.57-1.69-7.55.76-10,12.36-29.83,37.36-87,37.36-74,0-97-55-97-55L484.17,366.89a4.8,4.8,0,0,0-4.4-2.89H413.89a4.8,4.8,0,0,0-4.4,2.9L262.8,707.31A4.8,4.8,0,0,0,267.2,714Z" transform="translate(-262.41 -359)"/><path class="cls-1" d="M540.66,424.74,571,491.45a4.71,4.71,0,0,0,8.33.49c10.25-17.09,38.19-55.89,83.56-61.94,45-6,67,8,79,16a138.47,138.47,0,0,1,19.68,16.57,4.72,4.72,0,0,0,6.71,0l40.79-41.66a4.72,4.72,0,0,0,.33-6.23C799.52,402.16,759.61,359,680.92,359c-81.31,0-129.42,49.23-139.51,60.67A4.71,4.71,0,0,0,540.66,424.74Z" transform="translate(-262.41 -359)"/></svg>