<svg id="Laag_1" data-name="Laag 1" xmlns="http://www.w3.org/2000/svg" viewBox="0 0 790.48 138.44"><defs><style>.cls-1{font-size:131.85px;font-family:BebasNeue-Regular, Bebas Neue;}.cls-1,.cls-6{fill:#fff;}.cls-2{letter-spacing:-0.08em;}.cls-3{letter-spacing:0em;}.cls-4{letter-spacing:0em;}.cls-5{letter-spacing:0em;}</style></defs><text class="cls-1" transform="translate(172.12 112.07)">A<tspan class="cls-2" x="52.87" y="0">l</tspan><tspan class="cls-3" x="87.94" y="0">t</tspan><tspan class="cls-4" x="135.41" y="0">o </tspan><tspan class="cls-5" x="209.24" y="0">c</tspan><tspan x="260.01" y="0">onsiglio</tspan></text><path class="cls-6" d="M146,582.63h19a1.27,1.27,0,0,0,1.19-.83l6.8-18.6a1.25,1.25,0,0,1,1.18-.83h28.57a1.26,1.26,0,0,0,1.16-1.75l-6.34-15.11a1.25,1.25,0,0,0-1.16-.78H182.92a1.26,1.26,0,0,1-1.17-1.74l10.41-25.19a1.26,1.26,0,0,1,2.33,0l18.8,45a.8.8,0,0,0,.08.16,47.76,47.76,0,0,0,40.48,21.51c24.14,0,34.35-11.6,36.78-14.92a1.26,1.26,0,0,0-.1-1.61l-10.73-11.4a1.29,1.29,0,0,0-2,.2c-2.64,3.25-7.85,9.83-22.91,9.83-19.47,0-25.52-14.48-25.52-14.48l-26.26-60.82a1.26,1.26,0,0,0-1.16-.76H184.63a1.26,1.26,0,0,0-1.16.76l-38.61,89.59A1.26,1.26,0,0,0,146,582.63Z" transform="translate(-144.76 -470.78)"/><path class="cls-6" d="M218,506.51l8,17.55a1.25,1.25,0,0,0,2.2.13c2.69-4.5,10-14.71,22-16.3S267.8,510,271,512.1a36.63,36.63,0,0,1,5.18,4.36,1.23,1.23,0,0,0,1.76,0l10.74-11a1.24,1.24,0,0,0,.08-1.64c-2.6-3.29-13.11-14.65-33.82-14.65a49.77,49.77,0,0,0-36.71,16A1.24,1.24,0,0,0,218,506.51Z" transform="translate(-144.76 -470.78)"/></svg>