<svg id="Laag_1" data-name="Laag 1" xmlns="http://www.w3.org/2000/svg" viewBox="0 0 850.95 146.54"><defs><style>.cls-1{font-size:139.56px;font-family:BebasNeue-Regular, Bebas Neue;}.cls-1,.cls-5{fill:#fff;}.cls-2{letter-spacing:-0.08em;}.cls-3{letter-spacing:0em;}.cls-4{letter-spacing:0em;}</style></defs><text class="cls-1" transform="translate(196.42 118.63)">A<tspan class="cls-2" x="55.96" y="0">l</tspan><tspan class="cls-3" x="93.09" y="0">t</tspan><tspan x="143.33" y="0">o </tspan><tspan class="cls-4" x="221.48" y="0">c</tspan><tspan x="275.21" y="0">onsiglio</tspan></text><path class="cls-5" d="M115.88,585.26H136.3a1.37,1.37,0,0,0,1.28-.89l7.3-20a1.35,1.35,0,0,1,1.27-.89h30.69a1.35,1.35,0,0,0,1.25-1.88l-6.81-16.23a1.34,1.34,0,0,0-1.25-.83H155.52a1.36,1.36,0,0,1-1.26-1.88l11.19-27.06a1.35,1.35,0,0,1,2.5,0L188.14,564l.09.17a51.34,51.34,0,0,0,43.49,23.1c25.93,0,36.9-12.46,39.51-16a1.35,1.35,0,0,0-.11-1.73L259.6,557.24a1.4,1.4,0,0,0-2.14.21C254.62,560.94,249,568,232.85,568c-20.92,0-27.42-15.55-27.42-15.55l-28.21-65.34a1.36,1.36,0,0,0-1.24-.82H157.36a1.37,1.37,0,0,0-1.25.82l-41.47,96.25A1.35,1.35,0,0,0,115.88,585.26Z" transform="translate(-114.53 -466.73)"/><path class="cls-5" d="M193.2,503.48l8.58,18.86a1.34,1.34,0,0,0,2.36.14c2.9-4.84,10.79-15.81,23.62-17.52s19,2.27,22.34,4.53a38.8,38.8,0,0,1,5.56,4.68,1.33,1.33,0,0,0,1.9,0l11.53-11.77a1.34,1.34,0,0,0,.09-1.77c-2.8-3.53-14.08-15.73-36.33-15.73A53.5,53.5,0,0,0,193.41,502,1.33,1.33,0,0,0,193.2,503.48Z" transform="translate(-114.53 -466.73)"/></svg>